<svg width="325" height="278" viewBox="0 0 325 278" fill="none" xmlns="http://www.w3.org/2000/svg">
<g opacity="0.7" filter="url(#filter0_d_1_1212)">
<rect x="8" y="42" width="309" height="221" rx="10" fill="white"/>
<rect x="7.5" y="41.5" width="310" height="222" rx="10.5" stroke="#088717"/>
</g>
<path d="M112.68 142.196C111.317 142.196 110.085 141.963 108.984 141.496C107.901 141.029 107.043 140.357 106.408 139.48C105.773 138.603 105.447 137.567 105.428 136.372H109.628C109.684 137.175 109.964 137.809 110.468 138.276C110.991 138.743 111.7 138.976 112.596 138.976C113.511 138.976 114.229 138.761 114.752 138.332C115.275 137.884 115.536 137.305 115.536 136.596C115.536 136.017 115.359 135.541 115.004 135.168C114.649 134.795 114.201 134.505 113.66 134.3C113.137 134.076 112.409 133.833 111.476 133.572C110.207 133.199 109.171 132.835 108.368 132.48C107.584 132.107 106.903 131.556 106.324 130.828C105.764 130.081 105.484 129.092 105.484 127.86C105.484 126.703 105.773 125.695 106.352 124.836C106.931 123.977 107.743 123.324 108.788 122.876C109.833 122.409 111.028 122.176 112.372 122.176C114.388 122.176 116.021 122.671 117.272 123.66C118.541 124.631 119.241 125.993 119.372 127.748H115.06C115.023 127.076 114.733 126.525 114.192 126.096C113.669 125.648 112.969 125.424 112.092 125.424C111.327 125.424 110.711 125.62 110.244 126.012C109.796 126.404 109.572 126.973 109.572 127.72C109.572 128.243 109.74 128.681 110.076 129.036C110.431 129.372 110.86 129.652 111.364 129.876C111.887 130.081 112.615 130.324 113.548 130.604C114.817 130.977 115.853 131.351 116.656 131.724C117.459 132.097 118.149 132.657 118.728 133.404C119.307 134.151 119.596 135.131 119.596 136.344C119.596 137.389 119.325 138.36 118.784 139.256C118.243 140.152 117.449 140.871 116.404 141.412C115.359 141.935 114.117 142.196 112.68 142.196ZM137.639 126.488V142H133.691V140.04C133.187 140.712 132.524 141.244 131.703 141.636C130.9 142.009 130.023 142.196 129.071 142.196C127.857 142.196 126.784 141.944 125.851 141.44C124.917 140.917 124.18 140.161 123.639 139.172C123.116 138.164 122.855 136.969 122.855 135.588V126.488H126.775V135.028C126.775 136.26 127.083 137.212 127.699 137.884C128.315 138.537 129.155 138.864 130.219 138.864C131.301 138.864 132.151 138.537 132.767 137.884C133.383 137.212 133.691 136.26 133.691 135.028V126.488H137.639ZM140.498 134.244C140.498 132.639 140.825 131.239 141.478 130.044C142.132 128.831 143.037 127.897 144.194 127.244C145.352 126.572 146.677 126.236 148.17 126.236C150.093 126.236 151.68 126.721 152.93 127.692C154.2 128.644 155.049 129.988 155.478 131.724H151.25C151.026 131.052 150.644 130.529 150.102 130.156C149.58 129.764 148.926 129.568 148.142 129.568C147.022 129.568 146.136 129.979 145.482 130.8C144.829 131.603 144.502 132.751 144.502 134.244C144.502 135.719 144.829 136.867 145.482 137.688C146.136 138.491 147.022 138.892 148.142 138.892C149.729 138.892 150.765 138.183 151.25 136.764H155.478C155.049 138.444 154.2 139.779 152.93 140.768C151.661 141.757 150.074 142.252 148.17 142.252C146.677 142.252 145.352 141.925 144.194 141.272C143.037 140.6 142.132 139.667 141.478 138.472C140.825 137.259 140.498 135.849 140.498 134.244ZM157.342 134.244C157.342 132.639 157.669 131.239 158.322 130.044C158.975 128.831 159.881 127.897 161.038 127.244C162.195 126.572 163.521 126.236 165.014 126.236C166.937 126.236 168.523 126.721 169.774 127.692C171.043 128.644 171.893 129.988 172.322 131.724H168.094C167.87 131.052 167.487 130.529 166.946 130.156C166.423 129.764 165.77 129.568 164.986 129.568C163.866 129.568 162.979 129.979 162.326 130.8C161.673 131.603 161.346 132.751 161.346 134.244C161.346 135.719 161.673 136.867 162.326 137.688C162.979 138.491 163.866 138.892 164.986 138.892C166.573 138.892 167.609 138.183 168.094 136.764H172.322C171.893 138.444 171.043 139.779 169.774 140.768C168.505 141.757 166.918 142.252 165.014 142.252C163.521 142.252 162.195 141.925 161.038 141.272C159.881 140.6 158.975 139.667 158.322 138.472C157.669 137.259 157.342 135.849 157.342 134.244ZM189.614 133.908C189.614 134.468 189.576 134.972 189.502 135.42H178.162C178.255 136.54 178.647 137.417 179.338 138.052C180.028 138.687 180.878 139.004 181.886 139.004C183.342 139.004 184.378 138.379 184.994 137.128H189.222C188.774 138.621 187.915 139.853 186.646 140.824C185.376 141.776 183.818 142.252 181.97 142.252C180.476 142.252 179.132 141.925 177.938 141.272C176.762 140.6 175.838 139.657 175.166 138.444C174.512 137.231 174.186 135.831 174.186 134.244C174.186 132.639 174.512 131.229 175.166 130.016C175.819 128.803 176.734 127.869 177.91 127.216C179.086 126.563 180.439 126.236 181.97 126.236C183.444 126.236 184.76 126.553 185.918 127.188C187.094 127.823 187.999 128.728 188.634 129.904C189.287 131.061 189.614 132.396 189.614 133.908ZM185.554 132.788C185.535 131.78 185.171 130.977 184.462 130.38C183.752 129.764 182.884 129.456 181.858 129.456C180.887 129.456 180.066 129.755 179.394 130.352C178.74 130.931 178.339 131.743 178.19 132.788H185.554ZM198.411 142.252C197.142 142.252 196.003 142.028 194.995 141.58C193.987 141.113 193.184 140.488 192.587 139.704C192.008 138.92 191.691 138.052 191.635 137.1H195.583C195.658 137.697 195.947 138.192 196.451 138.584C196.974 138.976 197.618 139.172 198.383 139.172C199.13 139.172 199.708 139.023 200.119 138.724C200.548 138.425 200.763 138.043 200.763 137.576C200.763 137.072 200.502 136.699 199.979 136.456C199.475 136.195 198.663 135.915 197.543 135.616C196.386 135.336 195.434 135.047 194.687 134.748C193.959 134.449 193.324 133.992 192.783 133.376C192.26 132.76 191.999 131.929 191.999 130.884C191.999 130.025 192.242 129.241 192.727 128.532C193.231 127.823 193.94 127.263 194.855 126.852C195.788 126.441 196.88 126.236 198.131 126.236C199.979 126.236 201.454 126.703 202.555 127.636C203.656 128.551 204.263 129.792 204.375 131.36H200.623C200.567 130.744 200.306 130.259 199.839 129.904C199.391 129.531 198.784 129.344 198.019 129.344C197.31 129.344 196.759 129.475 196.367 129.736C195.994 129.997 195.807 130.361 195.807 130.828C195.807 131.351 196.068 131.752 196.591 132.032C197.114 132.293 197.926 132.564 199.027 132.844C200.147 133.124 201.071 133.413 201.799 133.712C202.527 134.011 203.152 134.477 203.675 135.112C204.216 135.728 204.496 136.549 204.515 137.576C204.515 138.472 204.263 139.275 203.759 139.984C203.274 140.693 202.564 141.253 201.631 141.664C200.716 142.056 199.643 142.252 198.411 142.252ZM213.669 142.252C212.399 142.252 211.261 142.028 210.253 141.58C209.245 141.113 208.442 140.488 207.845 139.704C207.266 138.92 206.949 138.052 206.893 137.1H210.841C210.915 137.697 211.205 138.192 211.709 138.584C212.231 138.976 212.875 139.172 213.641 139.172C214.387 139.172 214.966 139.023 215.377 138.724C215.806 138.425 216.021 138.043 216.021 137.576C216.021 137.072 215.759 136.699 215.237 136.456C214.733 136.195 213.921 135.915 212.801 135.616C211.643 135.336 210.691 135.047 209.945 134.748C209.217 134.449 208.582 133.992 208.041 133.376C207.518 132.76 207.257 131.929 207.257 130.884C207.257 130.025 207.499 129.241 207.985 128.532C208.489 127.823 209.198 127.263 210.113 126.852C211.046 126.441 212.138 126.236 213.389 126.236C215.237 126.236 216.711 126.703 217.813 127.636C218.914 128.551 219.521 129.792 219.633 131.36H215.881C215.825 130.744 215.563 130.259 215.097 129.904C214.649 129.531 214.042 129.344 213.277 129.344C212.567 129.344 212.017 129.475 211.625 129.736C211.251 129.997 211.065 130.361 211.065 130.828C211.065 131.351 211.326 131.752 211.849 132.032C212.371 132.293 213.183 132.564 214.285 132.844C215.405 133.124 216.329 133.413 217.057 133.712C217.785 134.011 218.41 134.477 218.933 135.112C219.474 135.728 219.754 136.549 219.773 137.576C219.773 138.472 219.521 139.275 219.017 139.984C218.531 140.693 217.822 141.253 216.889 141.664C215.974 142.056 214.901 142.252 213.669 142.252Z" fill="black"/>
<g filter="url(#filter1_d_1_1212)">
<circle cx="163" cy="48" r="48" fill="#D9D9D9"/>
</g>
<path d="M163 91.5689C151.445 91.5689 140.363 86.9786 132.192 78.8077C124.021 70.6369 119.431 59.5549 119.431 47.9996C119.431 36.4444 124.021 25.3624 132.192 17.1916C140.363 9.02074 151.445 4.43042 163 4.43042C174.555 4.43042 185.637 9.02074 193.808 17.1916C201.979 25.3624 206.569 36.4444 206.569 47.9996C206.569 59.5549 201.979 70.6369 193.808 78.8077C185.637 86.9786 174.555 91.5689 163 91.5689ZM154.286 69.7843L193.498 32.7504L186.963 26.215L154.286 56.7135L139.037 41.4643L132.502 47.9996L154.286 69.7843Z" fill="#088717"/>
<path d="M31.9904 185.416C31.9904 184.328 32.2411 183.352 32.7424 182.488C33.2544 181.624 33.9424 180.952 34.8064 180.472C35.6811 179.981 36.6358 179.736 37.6704 179.736C38.8544 179.736 39.9051 180.029 40.8224 180.616C41.7504 181.192 42.4224 182.013 42.8384 183.08H40.6464C40.3584 182.493 39.9584 182.056 39.4464 181.768C38.9344 181.48 38.3424 181.336 37.6704 181.336C36.9344 181.336 36.2784 181.501 35.7024 181.832C35.1264 182.163 34.6731 182.637 34.3424 183.256C34.0224 183.875 33.8624 184.595 33.8624 185.416C33.8624 186.237 34.0224 186.957 34.3424 187.576C34.6731 188.195 35.1264 188.675 35.7024 189.016C36.2784 189.347 36.9344 189.512 37.6704 189.512C38.3424 189.512 38.9344 189.368 39.4464 189.08C39.9584 188.792 40.3584 188.355 40.6464 187.768H42.8384C42.4224 188.835 41.7504 189.656 40.8224 190.232C39.9051 190.808 38.8544 191.096 37.6704 191.096C36.6251 191.096 35.6704 190.856 34.8064 190.376C33.9424 189.885 33.2544 189.208 32.7424 188.344C32.2411 187.48 31.9904 186.504 31.9904 185.416ZM48.7974 191.144C47.9654 191.144 47.2134 190.957 46.5414 190.584C45.8694 190.2 45.3414 189.667 44.9574 188.984C44.5734 188.291 44.3814 187.491 44.3814 186.584C44.3814 185.688 44.5788 184.893 44.9734 184.2C45.3681 183.507 45.9068 182.973 46.5894 182.6C47.2721 182.227 48.0348 182.04 48.8774 182.04C49.7201 182.04 50.4828 182.227 51.1654 182.6C51.8481 182.973 52.3868 183.507 52.7814 184.2C53.1761 184.893 53.3734 185.688 53.3734 186.584C53.3734 187.48 53.1708 188.275 52.7654 188.968C52.3601 189.661 51.8054 190.2 51.1014 190.584C50.4081 190.957 49.6401 191.144 48.7974 191.144ZM48.7974 189.56C49.2668 189.56 49.7041 189.448 50.1094 189.224C50.5254 189 50.8614 188.664 51.1174 188.216C51.3734 187.768 51.5014 187.224 51.5014 186.584C51.5014 185.944 51.3788 185.405 51.1334 184.968C50.8881 184.52 50.5628 184.184 50.1574 183.96C49.7521 183.736 49.3148 183.624 48.8454 183.624C48.3761 183.624 47.9388 183.736 47.5334 183.96C47.1388 184.184 46.8241 184.52 46.5894 184.968C46.3548 185.405 46.2374 185.944 46.2374 186.584C46.2374 187.533 46.4774 188.269 46.9574 188.792C47.4481 189.304 48.0614 189.56 48.7974 189.56ZM59.6246 182.04C60.3179 182.04 60.9366 182.184 61.4806 182.472C62.0352 182.76 62.4672 183.187 62.7766 183.752C63.0859 184.317 63.2406 185 63.2406 185.8V191H61.4326V186.072C61.4326 185.283 61.2352 184.68 60.8406 184.264C60.4459 183.837 59.9072 183.624 59.2246 183.624C58.5419 183.624 57.9979 183.837 57.5926 184.264C57.1979 184.68 57.0006 185.283 57.0006 186.072V191H55.1766V182.184H57.0006V183.192C57.2992 182.829 57.6779 182.547 58.1366 182.344C58.6059 182.141 59.1019 182.04 59.6246 182.04ZM69.1192 182.04C69.8019 182.04 70.4045 182.179 70.9272 182.456C71.4605 182.723 71.8765 183.059 72.1752 183.464V182.184H74.0152V191.144C74.0152 191.955 73.8445 192.675 73.5032 193.304C73.1619 193.944 72.6659 194.445 72.0152 194.808C71.3752 195.171 70.6072 195.352 69.7112 195.352C68.5165 195.352 67.5245 195.069 66.7352 194.504C65.9459 193.949 65.4979 193.192 65.3912 192.232H67.1992C67.3379 192.691 67.6312 193.059 68.0792 193.336C68.5379 193.624 69.0819 193.768 69.7112 193.768C70.4472 193.768 71.0392 193.544 71.4872 193.096C71.9459 192.648 72.1752 191.997 72.1752 191.144V189.672C71.8659 190.088 71.4445 190.44 70.9112 190.728C70.3885 191.005 69.7912 191.144 69.1192 191.144C68.3512 191.144 67.6472 190.952 67.0072 190.568C66.3779 190.173 65.8765 189.629 65.5032 188.936C65.1405 188.232 64.9592 187.437 64.9592 186.552C64.9592 185.667 65.1405 184.883 65.5032 184.2C65.8765 183.517 66.3779 182.989 67.0072 182.616C67.6472 182.232 68.3512 182.04 69.1192 182.04ZM72.1752 186.584C72.1752 185.976 72.0472 185.448 71.7912 185C71.5459 184.552 71.2205 184.211 70.8152 183.976C70.4099 183.741 69.9725 183.624 69.5032 183.624C69.0339 183.624 68.5965 183.741 68.1912 183.976C67.7859 184.2 67.4552 184.536 67.1992 184.984C66.9539 185.421 66.8312 185.944 66.8312 186.552C66.8312 187.16 66.9539 187.693 67.1992 188.152C67.4552 188.611 67.7859 188.963 68.1912 189.208C68.6072 189.443 69.0445 189.56 69.5032 189.56C69.9725 189.56 70.4099 189.443 70.8152 189.208C71.2205 188.973 71.5459 188.632 71.7912 188.184C72.0472 187.725 72.1752 187.192 72.1752 186.584ZM78.2349 183.464C78.5016 183.016 78.8536 182.669 79.2909 182.424C79.7389 182.168 80.2669 182.04 80.8749 182.04V183.928H80.4109C79.6963 183.928 79.1523 184.109 78.7789 184.472C78.4163 184.835 78.2349 185.464 78.2349 186.36V191H76.4109V182.184H78.2349V183.464ZM81.9436 186.552C81.9436 185.667 82.1249 184.883 82.4876 184.2C82.8609 183.517 83.3622 182.989 83.9916 182.616C84.6316 182.232 85.3356 182.04 86.1036 182.04C86.7969 182.04 87.3996 182.179 87.9116 182.456C88.4342 182.723 88.8502 183.059 89.1596 183.464V182.184H90.9996V191H89.1596V189.688C88.8502 190.104 88.4289 190.451 87.8956 190.728C87.3622 191.005 86.7542 191.144 86.0716 191.144C85.3142 191.144 84.6209 190.952 83.9916 190.568C83.3622 190.173 82.8609 189.629 82.4876 188.936C82.1249 188.232 81.9436 187.437 81.9436 186.552ZM89.1596 186.584C89.1596 185.976 89.0316 185.448 88.7756 185C88.5302 184.552 88.2049 184.211 87.7996 183.976C87.3942 183.741 86.9569 183.624 86.4876 183.624C86.0182 183.624 85.5809 183.741 85.1756 183.976C84.7702 184.2 84.4396 184.536 84.1836 184.984C83.9382 185.421 83.8156 185.944 83.8156 186.552C83.8156 187.16 83.9382 187.693 84.1836 188.152C84.4396 188.611 84.7702 188.963 85.1756 189.208C85.5916 189.443 86.0289 189.56 86.4876 189.56C86.9569 189.56 87.3942 189.443 87.7996 189.208C88.2049 188.973 88.5302 188.632 88.7756 188.184C89.0316 187.725 89.1596 187.192 89.1596 186.584ZM95.5233 183.672V188.552C95.5233 188.883 95.598 189.123 95.7473 189.272C95.9073 189.411 96.174 189.48 96.5473 189.48H97.6673V191H96.2273C95.406 191 94.7766 190.808 94.3393 190.424C93.902 190.04 93.6833 189.416 93.6833 188.552V183.672H92.6433V182.184H93.6833V179.992H95.5233V182.184H97.6673V183.672H95.5233ZM107.332 182.184V191H105.508V189.96C105.22 190.323 104.842 190.611 104.372 190.824C103.914 191.027 103.423 191.128 102.9 191.128C102.207 191.128 101.583 190.984 101.028 190.696C100.484 190.408 100.052 189.981 99.7324 189.416C99.4231 188.851 99.2684 188.168 99.2684 187.368V182.184H101.076V187.096C101.076 187.885 101.274 188.493 101.668 188.92C102.063 189.336 102.602 189.544 103.284 189.544C103.967 189.544 104.506 189.336 104.9 188.92C105.306 188.493 105.508 187.885 105.508 187.096V182.184H107.332ZM111.563 179.16V191H109.739V179.16H111.563ZM113.35 186.552C113.35 185.667 113.531 184.883 113.894 184.2C114.267 183.517 114.768 182.989 115.398 182.616C116.038 182.232 116.742 182.04 117.51 182.04C118.203 182.04 118.806 182.179 119.318 182.456C119.84 182.723 120.256 183.059 120.566 183.464V182.184H122.406V191H120.566V189.688C120.256 190.104 119.835 190.451 119.302 190.728C118.768 191.005 118.16 191.144 117.478 191.144C116.72 191.144 116.027 190.952 115.398 190.568C114.768 190.173 114.267 189.629 113.894 188.936C113.531 188.232 113.35 187.437 113.35 186.552ZM120.566 186.584C120.566 185.976 120.438 185.448 120.182 185C119.936 184.552 119.611 184.211 119.206 183.976C118.8 183.741 118.363 183.624 117.894 183.624C117.424 183.624 116.987 183.741 116.582 183.976C116.176 184.2 115.846 184.536 115.59 184.984C115.344 185.421 115.222 185.944 115.222 186.552C115.222 187.16 115.344 187.693 115.59 188.152C115.846 188.611 116.176 188.963 116.582 189.208C116.998 189.443 117.435 189.56 117.894 189.56C118.363 189.56 118.8 189.443 119.206 189.208C119.611 188.973 119.936 188.632 120.182 188.184C120.438 187.725 120.566 187.192 120.566 186.584ZM126.93 183.672V188.552C126.93 188.883 127.004 189.123 127.154 189.272C127.314 189.411 127.58 189.48 127.954 189.48H129.074V191H127.634C126.812 191 126.183 190.808 125.746 190.424C125.308 190.04 125.09 189.416 125.09 188.552V183.672H124.05V182.184H125.09V179.992H126.93V182.184H129.074V183.672H126.93ZM131.683 181.016C131.352 181.016 131.075 180.904 130.851 180.68C130.627 180.456 130.515 180.179 130.515 179.848C130.515 179.517 130.627 179.24 130.851 179.016C131.075 178.792 131.352 178.68 131.683 178.68C132.003 178.68 132.275 178.792 132.499 179.016C132.723 179.24 132.835 179.517 132.835 179.848C132.835 180.179 132.723 180.456 132.499 180.68C132.275 180.904 132.003 181.016 131.683 181.016ZM132.579 182.184V191H130.755V182.184H132.579ZM138.797 191.144C137.965 191.144 137.213 190.957 136.541 190.584C135.869 190.2 135.341 189.667 134.957 188.984C134.573 188.291 134.381 187.491 134.381 186.584C134.381 185.688 134.579 184.893 134.973 184.2C135.368 183.507 135.907 182.973 136.589 182.6C137.272 182.227 138.035 182.04 138.877 182.04C139.72 182.04 140.483 182.227 141.165 182.6C141.848 182.973 142.387 183.507 142.781 184.2C143.176 184.893 143.373 185.688 143.373 186.584C143.373 187.48 143.171 188.275 142.765 188.968C142.36 189.661 141.805 190.2 141.101 190.584C140.408 190.957 139.64 191.144 138.797 191.144ZM138.797 189.56C139.267 189.56 139.704 189.448 140.109 189.224C140.525 189 140.861 188.664 141.117 188.216C141.373 187.768 141.501 187.224 141.501 186.584C141.501 185.944 141.379 185.405 141.133 184.968C140.888 184.52 140.563 184.184 140.157 183.96C139.752 183.736 139.315 183.624 138.845 183.624C138.376 183.624 137.939 183.736 137.533 183.96C137.139 184.184 136.824 184.52 136.589 184.968C136.355 185.405 136.237 185.944 136.237 186.584C136.237 187.533 136.477 188.269 136.957 188.792C137.448 189.304 138.061 189.56 138.797 189.56ZM149.625 182.04C150.318 182.04 150.937 182.184 151.481 182.472C152.035 182.76 152.467 183.187 152.777 183.752C153.086 184.317 153.241 185 153.241 185.8V191H151.433V186.072C151.433 185.283 151.235 184.68 150.841 184.264C150.446 183.837 149.907 183.624 149.225 183.624C148.542 183.624 147.998 183.837 147.593 184.264C147.198 184.68 147.001 185.283 147.001 186.072V191H145.177V182.184H147.001V183.192C147.299 182.829 147.678 182.547 148.137 182.344C148.606 182.141 149.102 182.04 149.625 182.04ZM158.767 191.144C158.074 191.144 157.45 191.021 156.895 190.776C156.351 190.52 155.919 190.179 155.599 189.752C155.279 189.315 155.109 188.829 155.087 188.296H156.975C157.007 188.669 157.183 188.984 157.503 189.24C157.834 189.485 158.245 189.608 158.735 189.608C159.247 189.608 159.642 189.512 159.919 189.32C160.207 189.117 160.351 188.861 160.351 188.552C160.351 188.221 160.191 187.976 159.871 187.816C159.562 187.656 159.066 187.48 158.383 187.288C157.722 187.107 157.183 186.931 156.767 186.76C156.351 186.589 155.989 186.328 155.679 185.976C155.381 185.624 155.231 185.16 155.231 184.584C155.231 184.115 155.37 183.688 155.647 183.304C155.925 182.909 156.319 182.6 156.831 182.376C157.354 182.152 157.951 182.04 158.623 182.04C159.626 182.04 160.431 182.296 161.039 182.808C161.658 183.309 161.989 183.997 162.031 184.872H160.207C160.175 184.477 160.015 184.163 159.727 183.928C159.439 183.693 159.05 183.576 158.559 183.576C158.079 183.576 157.711 183.667 157.455 183.848C157.199 184.029 157.071 184.269 157.071 184.568C157.071 184.803 157.157 185 157.327 185.16C157.498 185.32 157.706 185.448 157.951 185.544C158.197 185.629 158.559 185.741 159.039 185.88C159.679 186.051 160.202 186.227 160.607 186.408C161.023 186.579 161.381 186.835 161.679 187.176C161.978 187.517 162.133 187.971 162.143 188.536C162.143 189.037 162.005 189.485 161.727 189.88C161.45 190.275 161.055 190.584 160.543 190.808C160.042 191.032 159.45 191.144 158.767 191.144ZM166.114 188.808L164.178 193.224H162.994L164.13 188.808H166.114ZM179.8 182.184L174.392 195.144H172.504L174.296 190.856L170.824 182.184H172.856L175.336 188.904L177.912 182.184H179.8ZM185.001 191.144C184.169 191.144 183.417 190.957 182.745 190.584C182.073 190.2 181.545 189.667 181.161 188.984C180.777 188.291 180.585 187.491 180.585 186.584C180.585 185.688 180.782 184.893 181.177 184.2C181.571 183.507 182.11 182.973 182.793 182.6C183.475 182.227 184.238 182.04 185.081 182.04C185.923 182.04 186.686 182.227 187.369 182.6C188.051 182.973 188.59 183.507 188.985 184.2C189.379 184.893 189.577 185.688 189.577 186.584C189.577 187.48 189.374 188.275 188.969 188.968C188.563 189.661 188.009 190.2 187.305 190.584C186.611 190.957 185.843 191.144 185.001 191.144ZM185.001 189.56C185.47 189.56 185.907 189.448 186.313 189.224C186.729 189 187.065 188.664 187.321 188.216C187.577 187.768 187.705 187.224 187.705 186.584C187.705 185.944 187.582 185.405 187.337 184.968C187.091 184.52 186.766 184.184 186.361 183.96C185.955 183.736 185.518 183.624 185.049 183.624C184.579 183.624 184.142 183.736 183.737 183.96C183.342 184.184 183.027 184.52 182.793 184.968C182.558 185.405 182.441 185.944 182.441 186.584C182.441 187.533 182.681 188.269 183.161 188.792C183.651 189.304 184.265 189.56 185.001 189.56ZM199.364 182.184V191H197.54V189.96C197.252 190.323 196.873 190.611 196.404 190.824C195.945 191.027 195.454 191.128 194.932 191.128C194.238 191.128 193.614 190.984 193.06 190.696C192.516 190.408 192.084 189.981 191.764 189.416C191.454 188.851 191.3 188.168 191.3 187.368V182.184H193.108V187.096C193.108 187.885 193.305 188.493 193.7 188.92C194.094 189.336 194.633 189.544 195.316 189.544C195.998 189.544 196.537 189.336 196.932 188.92C197.337 188.493 197.54 187.885 197.54 187.096V182.184H199.364ZM203.594 183.464C203.861 183.016 204.213 182.669 204.65 182.424C205.098 182.168 205.626 182.04 206.234 182.04V183.928H205.77C205.056 183.928 204.512 184.109 204.138 184.472C203.776 184.835 203.594 185.464 203.594 186.36V191H201.77V182.184H203.594V183.464ZM220.147 186.376C220.147 186.707 220.126 187.005 220.083 187.272H213.347C213.401 187.976 213.662 188.541 214.131 188.968C214.601 189.395 215.177 189.608 215.859 189.608C216.841 189.608 217.534 189.197 217.939 188.376H219.907C219.641 189.187 219.155 189.853 218.451 190.376C217.758 190.888 216.894 191.144 215.859 191.144C215.017 191.144 214.259 190.957 213.587 190.584C212.926 190.2 212.403 189.667 212.019 188.984C211.646 188.291 211.459 187.491 211.459 186.584C211.459 185.677 211.641 184.883 212.003 184.2C212.377 183.507 212.894 182.973 213.555 182.6C214.227 182.227 214.995 182.04 215.859 182.04C216.691 182.04 217.433 182.221 218.083 182.584C218.734 182.947 219.241 183.459 219.603 184.12C219.966 184.771 220.147 185.523 220.147 186.376ZM218.243 185.8C218.233 185.128 217.993 184.589 217.523 184.184C217.054 183.779 216.473 183.576 215.779 183.576C215.15 183.576 214.611 183.779 214.163 184.184C213.715 184.579 213.449 185.117 213.363 185.8H218.243ZM226.39 182.04C227.084 182.04 227.702 182.184 228.246 182.472C228.801 182.76 229.233 183.187 229.542 183.752C229.852 184.317 230.006 185 230.006 185.8V191H228.198V186.072C228.198 185.283 228.001 184.68 227.606 184.264C227.212 183.837 226.673 183.624 225.99 183.624C225.308 183.624 224.764 183.837 224.358 184.264C223.964 184.68 223.766 185.283 223.766 186.072V191H221.942V182.184H223.766V183.192C224.065 182.829 224.444 182.547 224.902 182.344C225.372 182.141 225.868 182.04 226.39 182.04ZM234.157 183.464C234.423 183.016 234.775 182.669 235.213 182.424C235.661 182.168 236.189 182.04 236.797 182.04V183.928H236.333C235.618 183.928 235.074 184.109 234.701 184.472C234.338 184.835 234.157 185.464 234.157 186.36V191H232.333V182.184H234.157V183.464ZM242.297 191.144C241.465 191.144 240.713 190.957 240.041 190.584C239.369 190.2 238.841 189.667 238.457 188.984C238.073 188.291 237.881 187.491 237.881 186.584C237.881 185.688 238.079 184.893 238.473 184.2C238.868 183.507 239.407 182.973 240.089 182.6C240.772 182.227 241.535 182.04 242.377 182.04C243.22 182.04 243.983 182.227 244.665 182.6C245.348 182.973 245.887 183.507 246.281 184.2C246.676 184.893 246.873 185.688 246.873 186.584C246.873 187.48 246.671 188.275 246.265 188.968C245.86 189.661 245.305 190.2 244.601 190.584C243.908 190.957 243.14 191.144 242.297 191.144ZM242.297 189.56C242.767 189.56 243.204 189.448 243.609 189.224C244.025 189 244.361 188.664 244.617 188.216C244.873 187.768 245.001 187.224 245.001 186.584C245.001 185.944 244.879 185.405 244.633 184.968C244.388 184.52 244.063 184.184 243.657 183.96C243.252 183.736 242.815 183.624 242.345 183.624C241.876 183.624 241.439 183.736 241.033 183.96C240.639 184.184 240.324 184.52 240.089 184.968C239.855 185.405 239.737 185.944 239.737 186.584C239.737 187.533 239.977 188.269 240.457 188.792C240.948 189.304 241.561 189.56 242.297 189.56ZM250.501 179.16V191H248.677V179.16H250.501ZM254.719 179.16V191H252.895V179.16H254.719ZM267.786 182.04C268.479 182.04 269.098 182.184 269.642 182.472C270.197 182.76 270.629 183.187 270.938 183.752C271.258 184.317 271.418 185 271.418 185.8V191H269.61V186.072C269.61 185.283 269.413 184.68 269.018 184.264C268.623 183.837 268.085 183.624 267.402 183.624C266.719 183.624 266.175 183.837 265.77 184.264C265.375 184.68 265.178 185.283 265.178 186.072V191H263.37V186.072C263.37 185.283 263.173 184.68 262.778 184.264C262.383 183.837 261.845 183.624 261.162 183.624C260.479 183.624 259.935 183.837 259.53 184.264C259.135 184.68 258.938 185.283 258.938 186.072V191H257.114V182.184H258.938V183.192C259.237 182.829 259.615 182.547 260.074 182.344C260.533 182.141 261.023 182.04 261.546 182.04C262.25 182.04 262.879 182.189 263.434 182.488C263.989 182.787 264.415 183.219 264.714 183.784C264.981 183.251 265.397 182.829 265.962 182.52C266.527 182.2 267.135 182.04 267.786 182.04ZM281.819 186.376C281.819 186.707 281.798 187.005 281.755 187.272H275.019C275.072 187.976 275.334 188.541 275.803 188.968C276.272 189.395 276.848 189.608 277.531 189.608C278.512 189.608 279.206 189.197 279.611 188.376H281.579C281.312 189.187 280.827 189.853 280.123 190.376C279.43 190.888 278.566 191.144 277.531 191.144C276.688 191.144 275.931 190.957 275.259 190.584C274.598 190.2 274.075 189.667 273.691 188.984C273.318 188.291 273.131 187.491 273.131 186.584C273.131 185.677 273.312 184.883 273.675 184.2C274.048 183.507 274.566 182.973 275.227 182.6C275.899 182.227 276.667 182.04 277.531 182.04C278.363 182.04 279.104 182.221 279.755 182.584C280.406 182.947 280.912 183.459 281.275 184.12C281.638 184.771 281.819 185.523 281.819 186.376ZM279.915 185.8C279.904 185.128 279.664 184.589 279.195 184.184C278.726 183.779 278.144 183.576 277.451 183.576C276.822 183.576 276.283 183.779 275.835 184.184C275.387 184.579 275.12 185.117 275.035 185.8H279.915ZM288.062 182.04C288.755 182.04 289.374 182.184 289.918 182.472C290.473 182.76 290.905 183.187 291.214 183.752C291.523 184.317 291.678 185 291.678 185.8V191H289.87V186.072C289.87 185.283 289.673 184.68 289.278 184.264C288.883 183.837 288.345 183.624 287.662 183.624C286.979 183.624 286.435 183.837 286.03 184.264C285.635 184.68 285.438 185.283 285.438 186.072V191H283.614V182.184H285.438V183.192C285.737 182.829 286.115 182.547 286.574 182.344C287.043 182.141 287.539 182.04 288.062 182.04ZM296.133 183.672V188.552C296.133 188.883 296.207 189.123 296.357 189.272C296.517 189.411 296.783 189.48 297.157 189.48H298.277V191H296.837C296.015 191 295.386 190.808 294.949 190.424C294.511 190.04 294.293 189.416 294.293 188.552V183.672H293.253V182.184H294.293V179.992H296.133V182.184H298.277V183.672H296.133ZM86.7404 210.552C86.7404 209.667 86.9218 208.883 87.2844 208.2C87.6578 207.517 88.1591 206.989 88.7884 206.616C89.4284 206.232 90.1324 206.04 90.9004 206.04C91.5938 206.04 92.1964 206.179 92.7084 206.456C93.2311 206.723 93.6471 207.059 93.9564 207.464V206.184H95.7964V215H93.9564V213.688C93.6471 214.104 93.2258 214.451 92.6924 214.728C92.1591 215.005 91.5511 215.144 90.8684 215.144C90.1111 215.144 89.4178 214.952 88.7884 214.568C88.1591 214.173 87.6578 213.629 87.2844 212.936C86.9218 212.232 86.7404 211.437 86.7404 210.552ZM93.9564 210.584C93.9564 209.976 93.8284 209.448 93.5724 209C93.3271 208.552 93.0018 208.211 92.5964 207.976C92.1911 207.741 91.7538 207.624 91.2844 207.624C90.8151 207.624 90.3778 207.741 89.9724 207.976C89.5671 208.2 89.2364 208.536 88.9804 208.984C88.7351 209.421 88.6124 209.944 88.6124 210.552C88.6124 211.16 88.7351 211.693 88.9804 212.152C89.2364 212.611 89.5671 212.963 89.9724 213.208C90.3884 213.443 90.8258 213.56 91.2844 213.56C91.7538 213.56 92.1911 213.443 92.5964 213.208C93.0018 212.973 93.3271 212.632 93.5724 212.184C93.8284 211.725 93.9564 211.192 93.9564 210.584ZM101.392 215.144C100.699 215.144 100.075 215.021 99.5202 214.776C98.9762 214.52 98.5442 214.179 98.2242 213.752C97.9042 213.315 97.7335 212.829 97.7122 212.296H99.6002C99.6322 212.669 99.8082 212.984 100.128 213.24C100.459 213.485 100.87 213.608 101.36 213.608C101.872 213.608 102.267 213.512 102.544 213.32C102.832 213.117 102.976 212.861 102.976 212.552C102.976 212.221 102.816 211.976 102.496 211.816C102.187 211.656 101.691 211.48 101.008 211.288C100.347 211.107 99.8082 210.931 99.3922 210.76C98.9762 210.589 98.6135 210.328 98.3042 209.976C98.0055 209.624 97.8562 209.16 97.8562 208.584C97.8562 208.115 97.9949 207.688 98.2722 207.304C98.5495 206.909 98.9442 206.6 99.4562 206.376C99.9789 206.152 100.576 206.04 101.248 206.04C102.251 206.04 103.056 206.296 103.664 206.808C104.283 207.309 104.614 207.997 104.656 208.872H102.832C102.8 208.477 102.64 208.163 102.352 207.928C102.064 207.693 101.675 207.576 101.184 207.576C100.704 207.576 100.336 207.667 100.08 207.848C99.8242 208.029 99.6962 208.269 99.6962 208.568C99.6962 208.803 99.7815 209 99.9522 209.16C100.123 209.32 100.331 209.448 100.576 209.544C100.822 209.629 101.184 209.741 101.664 209.88C102.304 210.051 102.827 210.227 103.232 210.408C103.648 210.579 104.006 210.835 104.304 211.176C104.603 211.517 104.758 211.971 104.768 212.536C104.768 213.037 104.63 213.485 104.352 213.88C104.075 214.275 103.68 214.584 103.168 214.808C102.667 215.032 102.075 215.144 101.392 215.144ZM112.719 207.496C113.029 207.069 113.45 206.723 113.983 206.456C114.527 206.179 115.13 206.04 115.791 206.04C116.57 206.04 117.274 206.227 117.903 206.6C118.533 206.973 119.029 207.507 119.391 208.2C119.754 208.883 119.935 209.667 119.935 210.552C119.935 211.437 119.754 212.232 119.391 212.936C119.029 213.629 118.527 214.173 117.887 214.568C117.258 214.952 116.559 215.144 115.791 215.144C115.109 215.144 114.501 215.011 113.967 214.744C113.445 214.477 113.029 214.136 112.719 213.72V215H110.895V203.16H112.719V207.496ZM118.079 210.552C118.079 209.944 117.951 209.421 117.695 208.984C117.45 208.536 117.119 208.2 116.703 207.976C116.298 207.741 115.861 207.624 115.391 207.624C114.933 207.624 114.495 207.741 114.079 207.976C113.674 208.211 113.343 208.552 113.087 209C112.842 209.448 112.719 209.976 112.719 210.584C112.719 211.192 112.842 211.725 113.087 212.184C113.343 212.632 113.674 212.973 114.079 213.208C114.495 213.443 114.933 213.56 115.391 213.56C115.861 213.56 116.298 213.443 116.703 213.208C117.119 212.963 117.45 212.611 117.695 212.152C117.951 211.693 118.079 211.16 118.079 210.552ZM129.819 210.376C129.819 210.707 129.798 211.005 129.755 211.272H123.019C123.072 211.976 123.334 212.541 123.803 212.968C124.272 213.395 124.848 213.608 125.531 213.608C126.512 213.608 127.206 213.197 127.611 212.376H129.579C129.312 213.187 128.827 213.853 128.123 214.376C127.43 214.888 126.566 215.144 125.531 215.144C124.688 215.144 123.931 214.957 123.259 214.584C122.598 214.2 122.075 213.667 121.691 212.984C121.318 212.291 121.131 211.491 121.131 210.584C121.131 209.677 121.312 208.883 121.675 208.2C122.048 207.507 122.566 206.973 123.227 206.6C123.899 206.227 124.667 206.04 125.531 206.04C126.363 206.04 127.104 206.221 127.755 206.584C128.406 206.947 128.912 207.459 129.275 208.12C129.638 208.771 129.819 209.523 129.819 210.376ZM127.915 209.8C127.904 209.128 127.664 208.589 127.195 208.184C126.726 207.779 126.144 207.576 125.451 207.576C124.822 207.576 124.283 207.779 123.835 208.184C123.387 208.579 123.12 209.117 123.035 209.8H127.915ZM139.694 210.376C139.694 210.707 139.673 211.005 139.63 211.272H132.894C132.947 211.976 133.209 212.541 133.678 212.968C134.147 213.395 134.723 213.608 135.406 213.608C136.387 213.608 137.081 213.197 137.486 212.376H139.454C139.187 213.187 138.702 213.853 137.998 214.376C137.305 214.888 136.441 215.144 135.406 215.144C134.563 215.144 133.806 214.957 133.134 214.584C132.473 214.2 131.95 213.667 131.566 212.984C131.193 212.291 131.006 211.491 131.006 210.584C131.006 209.677 131.187 208.883 131.55 208.2C131.923 207.507 132.441 206.973 133.102 206.6C133.774 206.227 134.542 206.04 135.406 206.04C136.238 206.04 136.979 206.221 137.63 206.584C138.281 206.947 138.787 207.459 139.15 208.12C139.513 208.771 139.694 209.523 139.694 210.376ZM137.79 209.8C137.779 209.128 137.539 208.589 137.07 208.184C136.601 207.779 136.019 207.576 135.326 207.576C134.697 207.576 134.158 207.779 133.71 208.184C133.262 208.579 132.995 209.117 132.91 209.8H137.79ZM145.937 206.04C146.63 206.04 147.249 206.184 147.793 206.472C148.348 206.76 148.78 207.187 149.089 207.752C149.398 208.317 149.553 209 149.553 209.8V215H147.745V210.072C147.745 209.283 147.548 208.68 147.153 208.264C146.758 207.837 146.22 207.624 145.537 207.624C144.854 207.624 144.31 207.837 143.905 208.264C143.51 208.68 143.313 209.283 143.313 210.072V215H141.489V206.184H143.313V207.192C143.612 206.829 143.99 206.547 144.449 206.344C144.918 206.141 145.414 206.04 145.937 206.04ZM159.236 215.144C158.543 215.144 157.919 215.021 157.364 214.776C156.82 214.52 156.388 214.179 156.068 213.752C155.748 213.315 155.577 212.829 155.556 212.296H157.444C157.476 212.669 157.652 212.984 157.972 213.24C158.303 213.485 158.713 213.608 159.204 213.608C159.716 213.608 160.111 213.512 160.388 213.32C160.676 213.117 160.82 212.861 160.82 212.552C160.82 212.221 160.66 211.976 160.34 211.816C160.031 211.656 159.535 211.48 158.852 211.288C158.191 211.107 157.652 210.931 157.236 210.76C156.82 210.589 156.457 210.328 156.148 209.976C155.849 209.624 155.7 209.16 155.7 208.584C155.7 208.115 155.839 207.688 156.116 207.304C156.393 206.909 156.788 206.6 157.3 206.376C157.823 206.152 158.42 206.04 159.092 206.04C160.095 206.04 160.9 206.296 161.508 206.808C162.127 207.309 162.457 207.997 162.5 208.872H160.676C160.644 208.477 160.484 208.163 160.196 207.928C159.908 207.693 159.519 207.576 159.028 207.576C158.548 207.576 158.18 207.667 157.924 207.848C157.668 208.029 157.54 208.269 157.54 208.568C157.54 208.803 157.625 209 157.796 209.16C157.967 209.32 158.175 209.448 158.42 209.544C158.665 209.629 159.028 209.741 159.508 209.88C160.148 210.051 160.671 210.227 161.076 210.408C161.492 210.579 161.849 210.835 162.148 211.176C162.447 211.517 162.601 211.971 162.612 212.536C162.612 213.037 162.473 213.485 162.196 213.88C161.919 214.275 161.524 214.584 161.012 214.808C160.511 215.032 159.919 215.144 159.236 215.144ZM172.567 206.184V215H170.743V213.96C170.455 214.323 170.076 214.611 169.607 214.824C169.148 215.027 168.657 215.128 168.135 215.128C167.441 215.128 166.817 214.984 166.263 214.696C165.719 214.408 165.287 213.981 164.967 213.416C164.657 212.851 164.503 212.168 164.503 211.368V206.184H166.311V211.096C166.311 211.885 166.508 212.493 166.903 212.92C167.297 213.336 167.836 213.544 168.519 213.544C169.201 213.544 169.74 213.336 170.135 212.92C170.54 212.493 170.743 211.885 170.743 211.096V206.184H172.567ZM174.365 210.584C174.365 209.677 174.547 208.883 174.909 208.2C175.283 207.507 175.795 206.973 176.445 206.6C177.096 206.227 177.843 206.04 178.685 206.04C179.752 206.04 180.632 206.296 181.325 206.808C182.029 207.309 182.504 208.029 182.749 208.968H180.781C180.621 208.531 180.365 208.189 180.013 207.944C179.661 207.699 179.219 207.576 178.685 207.576C177.939 207.576 177.341 207.843 176.893 208.376C176.456 208.899 176.237 209.635 176.237 210.584C176.237 211.533 176.456 212.275 176.893 212.808C177.341 213.341 177.939 213.608 178.685 213.608C179.741 213.608 180.44 213.144 180.781 212.216H182.749C182.493 213.112 182.013 213.827 181.309 214.36C180.605 214.883 179.731 215.144 178.685 215.144C177.843 215.144 177.096 214.957 176.445 214.584C175.795 214.2 175.283 213.667 174.909 212.984C174.547 212.291 174.365 211.491 174.365 210.584ZM183.959 210.584C183.959 209.677 184.141 208.883 184.503 208.2C184.877 207.507 185.389 206.973 186.039 206.6C186.69 206.227 187.437 206.04 188.279 206.04C189.346 206.04 190.226 206.296 190.919 206.808C191.623 207.309 192.098 208.029 192.343 208.968H190.375C190.215 208.531 189.959 208.189 189.607 207.944C189.255 207.699 188.813 207.576 188.279 207.576C187.533 207.576 186.935 207.843 186.487 208.376C186.05 208.899 185.831 209.635 185.831 210.584C185.831 211.533 186.05 212.275 186.487 212.808C186.935 213.341 187.533 213.608 188.279 213.608C189.335 213.608 190.034 213.144 190.375 212.216H192.343C192.087 213.112 191.607 213.827 190.903 214.36C190.199 214.883 189.325 215.144 188.279 215.144C187.437 215.144 186.69 214.957 186.039 214.584C185.389 214.2 184.877 213.667 184.503 212.984C184.141 212.291 183.959 211.491 183.959 210.584ZM202.241 210.376C202.241 210.707 202.22 211.005 202.177 211.272H195.441C195.494 211.976 195.756 212.541 196.225 212.968C196.694 213.395 197.27 213.608 197.953 213.608C198.934 213.608 199.628 213.197 200.033 212.376H202.001C201.734 213.187 201.249 213.853 200.545 214.376C199.852 214.888 198.988 215.144 197.953 215.144C197.11 215.144 196.353 214.957 195.681 214.584C195.02 214.2 194.497 213.667 194.113 212.984C193.74 212.291 193.553 211.491 193.553 210.584C193.553 209.677 193.734 208.883 194.097 208.2C194.47 207.507 194.988 206.973 195.649 206.6C196.321 206.227 197.089 206.04 197.953 206.04C198.785 206.04 199.526 206.221 200.177 206.584C200.828 206.947 201.334 207.459 201.697 208.12C202.06 208.771 202.241 209.523 202.241 210.376ZM200.337 209.8C200.326 209.128 200.086 208.589 199.617 208.184C199.148 207.779 198.566 207.576 197.873 207.576C197.244 207.576 196.705 207.779 196.257 208.184C195.809 208.579 195.542 209.117 195.457 209.8H200.337ZM207.236 215.144C206.543 215.144 205.919 215.021 205.364 214.776C204.82 214.52 204.388 214.179 204.068 213.752C203.748 213.315 203.577 212.829 203.556 212.296H205.444C205.476 212.669 205.652 212.984 205.972 213.24C206.303 213.485 206.713 213.608 207.204 213.608C207.716 213.608 208.111 213.512 208.388 213.32C208.676 213.117 208.82 212.861 208.82 212.552C208.82 212.221 208.66 211.976 208.34 211.816C208.031 211.656 207.535 211.48 206.852 211.288C206.191 211.107 205.652 210.931 205.236 210.76C204.82 210.589 204.457 210.328 204.148 209.976C203.849 209.624 203.7 209.16 203.7 208.584C203.7 208.115 203.839 207.688 204.116 207.304C204.393 206.909 204.788 206.6 205.3 206.376C205.823 206.152 206.42 206.04 207.092 206.04C208.095 206.04 208.9 206.296 209.508 206.808C210.127 207.309 210.457 207.997 210.5 208.872H208.676C208.644 208.477 208.484 208.163 208.196 207.928C207.908 207.693 207.519 207.576 207.028 207.576C206.548 207.576 206.18 207.667 205.924 207.848C205.668 208.029 205.54 208.269 205.54 208.568C205.54 208.803 205.625 209 205.796 209.16C205.967 209.32 206.175 209.448 206.42 209.544C206.665 209.629 207.028 209.741 207.508 209.88C208.148 210.051 208.671 210.227 209.076 210.408C209.492 210.579 209.849 210.835 210.148 211.176C210.447 211.517 210.601 211.971 210.612 212.536C210.612 213.037 210.473 213.485 210.196 213.88C209.919 214.275 209.524 214.584 209.012 214.808C208.511 215.032 207.919 215.144 207.236 215.144ZM215.783 215.144C215.089 215.144 214.465 215.021 213.911 214.776C213.367 214.52 212.935 214.179 212.615 213.752C212.295 213.315 212.124 212.829 212.103 212.296H213.991C214.023 212.669 214.199 212.984 214.519 213.24C214.849 213.485 215.26 213.608 215.751 213.608C216.263 213.608 216.657 213.512 216.935 213.32C217.223 213.117 217.367 212.861 217.367 212.552C217.367 212.221 217.207 211.976 216.887 211.816C216.577 211.656 216.081 211.48 215.399 211.288C214.737 211.107 214.199 210.931 213.783 210.76C213.367 210.589 213.004 210.328 212.695 209.976C212.396 209.624 212.247 209.16 212.247 208.584C212.247 208.115 212.385 207.688 212.663 207.304C212.94 206.909 213.335 206.6 213.847 206.376C214.369 206.152 214.967 206.04 215.639 206.04C216.641 206.04 217.447 206.296 218.055 206.808C218.673 207.309 219.004 207.997 219.047 208.872H217.223C217.191 208.477 217.031 208.163 216.743 207.928C216.455 207.693 216.065 207.576 215.575 207.576C215.095 207.576 214.727 207.667 214.471 207.848C214.215 208.029 214.087 208.269 214.087 208.568C214.087 208.803 214.172 209 214.343 209.16C214.513 209.32 214.721 209.448 214.967 209.544C215.212 209.629 215.575 209.741 216.055 209.88C216.695 210.051 217.217 210.227 217.623 210.408C218.039 210.579 218.396 210.835 218.695 211.176C218.993 211.517 219.148 211.971 219.159 212.536C219.159 213.037 219.02 213.485 218.743 213.88C218.465 214.275 218.071 214.584 217.559 214.808C217.057 215.032 216.465 215.144 215.783 215.144ZM224.826 207.672H223.194V215H221.354V207.672H220.314V206.184H221.354V205.56C221.354 204.547 221.62 203.811 222.154 203.352C222.698 202.883 223.546 202.648 224.698 202.648V204.168C224.143 204.168 223.754 204.275 223.53 204.488C223.306 204.691 223.194 205.048 223.194 205.56V206.184H224.826V207.672ZM234.426 206.184V215H232.602V213.96C232.314 214.323 231.936 214.611 231.466 214.824C231.008 215.027 230.517 215.128 229.994 215.128C229.301 215.128 228.677 214.984 228.122 214.696C227.578 214.408 227.146 213.981 226.826 213.416C226.517 212.851 226.362 212.168 226.362 211.368V206.184H228.17V211.096C228.17 211.885 228.368 212.493 228.762 212.92C229.157 213.336 229.696 213.544 230.378 213.544C231.061 213.544 231.6 213.336 231.994 212.92C232.4 212.493 232.602 211.885 232.602 211.096V206.184H234.426ZM238.657 203.16V215H236.833V203.16H238.657Z" fill="#01586C"/>
<path d="M23 264H302V265C302 270.523 297.523 275 292 275H33C27.4772 275 23 270.523 23 265V264Z" fill="#088717"/>
<defs>
<filter id="filter0_d_1_1212" x="0" y="41" width="325" height="237" filterUnits="userSpaceOnUse" color-interpolation-filters="sRGB">
<feFlood flood-opacity="0" result="BackgroundImageFix"/>
<feColorMatrix in="SourceAlpha" type="matrix" values="0 0 0 0 0 0 0 0 0 0 0 0 0 0 0 0 0 0 127 0" result="hardAlpha"/>
<feOffset dy="7"/>
<feGaussianBlur stdDeviation="3.5"/>
<feComposite in2="hardAlpha" operator="out"/>
<feColorMatrix type="matrix" values="0 0 0 0 0 0 0 0 0 0 0 0 0 0 0 0 0 0 0.25 0"/>
<feBlend mode="normal" in2="BackgroundImageFix" result="effect1_dropShadow_1_1212"/>
<feBlend mode="normal" in="SourceGraphic" in2="effect1_dropShadow_1_1212" result="shape"/>
</filter>
<filter id="filter1_d_1_1212" x="111" y="0" width="104" height="104" filterUnits="userSpaceOnUse" color-interpolation-filters="sRGB">
<feFlood flood-opacity="0" result="BackgroundImageFix"/>
<feColorMatrix in="SourceAlpha" type="matrix" values="0 0 0 0 0 0 0 0 0 0 0 0 0 0 0 0 0 0 127 0" result="hardAlpha"/>
<feOffset dy="4"/>
<feGaussianBlur stdDeviation="2"/>
<feComposite in2="hardAlpha" operator="out"/>
<feColorMatrix type="matrix" values="0 0 0 0 0 0 0 0 0 0 0 0 0 0 0 0 0 0 0.25 0"/>
<feBlend mode="normal" in2="BackgroundImageFix" result="effect1_dropShadow_1_1212"/>
<feBlend mode="normal" in="SourceGraphic" in2="effect1_dropShadow_1_1212" result="shape"/>
</filter>
</defs>
</svg>
