<svg width="190" height="46" viewBox="0 0 190 46" fill="none" xmlns="http://www.w3.org/2000/svg">
<rect x="0.5" y="0.5" width="189" height="45" rx="10.5" fill="#01586C" stroke="white"/>
<path d="M39.998 31H35.2124L30.229 12.0156H35.5684L38.7192 25.4893L41.5142 12.0156H46.313L49.3716 25.832L52.8125 12.0156H56.0425L50.5186 31H45.7197L43.0435 18.8711L39.998 31ZM60.9072 23.7754C61.4521 23.8984 61.9971 23.9951 62.542 24.0654C63.0869 24.1357 63.6362 24.1709 64.1899 24.1709C64.77 24.1709 65.3062 24.1182 65.7983 24.0127C66.2993 23.8984 66.73 23.7139 67.0903 23.459C67.4595 23.1953 67.7495 22.8481 67.9604 22.4175C68.1714 21.9868 68.2769 21.4507 68.2769 20.8091C68.2769 20.2905 68.2065 19.8159 68.0659 19.3853C67.9253 18.9546 67.7144 18.5854 67.4331 18.2778C67.1606 17.9702 66.8223 17.7329 66.418 17.5659C66.0137 17.3901 65.5435 17.3022 65.0073 17.3022C64.5063 17.3022 64.0537 17.3945 63.6494 17.5791C63.2539 17.7637 62.9023 18.0142 62.5947 18.3306C62.2959 18.6382 62.0366 18.9985 61.8169 19.4116C61.606 19.8247 61.4302 20.2554 61.2896 20.7036C61.1489 21.1519 61.0479 21.6045 60.9863 22.0615C60.9248 22.5186 60.894 22.9492 60.894 23.3535C60.894 23.4238 60.894 23.4941 60.894 23.5645C60.894 23.6348 60.8984 23.7051 60.9072 23.7754ZM71.8892 20.7695C71.8892 21.3936 71.7881 21.9517 71.5859 22.4438C71.3838 22.9272 71.1069 23.3535 70.7554 23.7227C70.4126 24.0918 70.0127 24.4038 69.5557 24.6587C69.0986 24.9136 68.6108 25.1245 68.0923 25.2915C67.5737 25.4497 67.0376 25.564 66.4839 25.6343C65.939 25.7046 65.4072 25.7397 64.8887 25.7397C64.2295 25.7397 63.5791 25.6958 62.9375 25.6079C62.2959 25.5112 61.6631 25.3618 61.0391 25.1597C61.1357 25.7397 61.2896 26.2935 61.5005 26.8208C61.7114 27.3394 61.9927 27.7964 62.3442 28.1919C62.6958 28.5786 63.1265 28.8862 63.6362 29.1147C64.1548 29.3433 64.7656 29.4575 65.4688 29.4575C65.9346 29.4575 66.3784 29.3872 66.8003 29.2466C67.2222 29.106 67.6089 28.9082 67.9604 28.6533C68.312 28.3984 68.6196 28.0952 68.8833 27.7437C69.1558 27.3921 69.3755 27.001 69.5425 26.5703L71.4673 27.2822C71.1772 27.9766 70.7773 28.5786 70.2676 29.0884C69.7666 29.5894 69.1953 30.0068 68.5537 30.3408C67.9209 30.666 67.2441 30.9077 66.5234 31.0659C65.8115 31.2241 65.104 31.3032 64.4009 31.3032C63.2407 31.3032 62.1685 31.1099 61.1841 30.7231C60.1997 30.3276 59.3516 29.7783 58.6396 29.0752C57.9277 28.3721 57.3696 27.5327 56.9653 26.5571C56.561 25.5815 56.3589 24.5137 56.3589 23.3535C56.3589 22.1934 56.561 21.1255 56.9653 20.1499C57.3696 19.1743 57.9277 18.335 58.6396 17.6318C59.3516 16.9287 60.1997 16.3838 61.1841 15.9971C62.1685 15.6016 63.2407 15.4038 64.4009 15.4038C64.9634 15.4038 65.5391 15.4434 66.1279 15.5225C66.7168 15.6016 67.2881 15.729 67.8418 15.9048C68.3955 16.0718 68.9185 16.2915 69.4106 16.564C69.9028 16.8364 70.3291 17.1748 70.6895 17.5791C71.0586 17.9746 71.3486 18.436 71.5596 18.9634C71.7793 19.4907 71.8892 20.0928 71.8892 20.7695ZM79.127 31H74.6709V8.75928H76.3848L79.127 13.3867V31ZM96.8984 19.5435L94.9736 20.3081C94.666 19.3413 94.1519 18.5986 93.4312 18.0801C92.7104 17.5615 91.8447 17.3022 90.834 17.3022C90.2891 17.3022 89.8013 17.3901 89.3706 17.5659C88.9487 17.7329 88.5752 17.9658 88.25 18.2646C87.9336 18.5635 87.6611 18.9106 87.4326 19.3062C87.2129 19.7017 87.0327 20.1235 86.8921 20.5718C86.7515 21.02 86.6504 21.4858 86.5889 21.9692C86.5273 22.4438 86.4966 22.9053 86.4966 23.3535C86.4966 23.8369 86.5229 24.3247 86.5757 24.8169C86.6284 25.3091 86.7163 25.7837 86.8394 26.2407C86.9712 26.689 87.1426 27.1108 87.3535 27.5063C87.5645 27.8931 87.8281 28.2314 88.1445 28.5215C88.4697 28.8115 88.8521 29.04 89.2915 29.207C89.7397 29.374 90.2539 29.4575 90.834 29.4575C91.2998 29.4575 91.7437 29.3872 92.1655 29.2466C92.5874 29.106 92.9741 28.9082 93.3257 28.6533C93.6772 28.3984 93.9893 28.0952 94.2617 27.7437C94.5342 27.3921 94.7495 27.001 94.9077 26.5703L96.8457 27.2822C96.5557 27.9766 96.1689 28.5786 95.6855 29.0884C95.2109 29.5894 94.6704 30.0068 94.064 30.3408C93.4575 30.666 92.8071 30.9077 92.1128 31.0659C91.4185 31.2241 90.7153 31.3032 90.0034 31.3032C88.8521 31.3032 87.7842 31.1099 86.7998 30.7231C85.8154 30.3276 84.9629 29.7783 84.2422 29.0752C83.5303 28.3633 82.9722 27.5239 82.5679 26.5571C82.1636 25.5815 81.9614 24.5137 81.9614 23.3535C81.9614 22.1846 82.1592 21.1123 82.5547 20.1367C82.959 19.1611 83.5171 18.3218 84.229 17.6187C84.9409 16.9155 85.7891 16.3706 86.7734 15.9839C87.7578 15.5972 88.8345 15.4038 90.0034 15.4038C90.7417 15.4038 91.4624 15.4873 92.1655 15.6543C92.8687 15.8125 93.519 16.063 94.1167 16.4058C94.7231 16.7397 95.2637 17.166 95.7383 17.6846C96.2217 18.2031 96.6084 18.8228 96.8984 19.5435ZM115.619 23.3535C115.619 24.1445 115.514 24.8872 115.303 25.5815C115.092 26.2759 114.797 26.9175 114.419 27.5063C114.05 28.0952 113.602 28.627 113.075 29.1016C112.547 29.5674 111.967 29.9629 111.334 30.2881C110.71 30.6133 110.038 30.8638 109.317 31.0396C108.605 31.2153 107.872 31.3032 107.116 31.3032C106.36 31.3032 105.626 31.2153 104.914 31.0396C104.202 30.8638 103.53 30.6133 102.897 30.2881C102.273 29.9629 101.697 29.5674 101.17 29.1016C100.643 28.627 100.19 28.0952 99.812 27.5063C99.4429 26.9175 99.1528 26.2759 98.9419 25.5815C98.731 24.8784 98.6255 24.1357 98.6255 23.3535C98.6255 22.5713 98.731 21.833 98.9419 21.1387C99.1528 20.4355 99.4429 19.7896 99.812 19.2007C100.19 18.6118 100.643 18.0845 101.17 17.6187C101.697 17.144 102.273 16.7441 102.897 16.4189C103.53 16.0938 104.202 15.8433 104.914 15.6675C105.626 15.4917 106.36 15.4038 107.116 15.4038C107.872 15.4038 108.605 15.4917 109.317 15.6675C110.038 15.8433 110.71 16.0938 111.334 16.4189C111.967 16.7441 112.547 17.144 113.075 17.6187C113.602 18.0845 114.05 18.6118 114.419 19.2007C114.797 19.7896 115.092 20.4355 115.303 21.1387C115.514 21.833 115.619 22.5713 115.619 23.3535ZM111.084 23.3535C111.084 22.9316 111.058 22.4878 111.005 22.022C110.961 21.5474 110.882 21.0859 110.768 20.6377C110.653 20.1807 110.495 19.7456 110.293 19.3325C110.1 18.9106 109.858 18.5459 109.568 18.2383C109.278 17.9219 108.931 17.6714 108.526 17.4868C108.122 17.2935 107.652 17.1968 107.116 17.1968C106.606 17.1968 106.153 17.2935 105.758 17.4868C105.362 17.6802 105.015 17.9395 104.716 18.2646C104.426 18.5811 104.18 18.9502 103.978 19.3721C103.785 19.7939 103.626 20.2334 103.503 20.6904C103.38 21.1387 103.292 21.5957 103.24 22.0615C103.187 22.5186 103.161 22.9492 103.161 23.3535C103.161 23.7578 103.187 24.1929 103.24 24.6587C103.292 25.1157 103.38 25.5728 103.503 26.0298C103.626 26.4868 103.785 26.9263 103.978 27.3481C104.18 27.7612 104.426 28.1304 104.716 28.4556C105.015 28.772 105.362 29.0269 105.758 29.2202C106.153 29.4136 106.606 29.5103 107.116 29.5103C107.643 29.5103 108.109 29.418 108.513 29.2334C108.917 29.04 109.265 28.7852 109.555 28.4688C109.854 28.1523 110.1 27.7876 110.293 27.3745C110.486 26.9614 110.64 26.5264 110.754 26.0693C110.877 25.6123 110.961 25.1509 111.005 24.6851C111.058 24.2192 111.084 23.7754 111.084 23.3535ZM142 22.1143C142 23.1602 141.876 24.25 141.63 25.3838C141.384 26.5176 141.037 27.625 140.589 28.7061C140.149 29.7783 139.618 30.7935 138.994 31.7515C138.37 32.7095 137.675 33.54 136.911 34.2432L135.236 33.3335C135.491 32.8765 135.724 32.3623 135.935 31.791C136.146 31.2197 136.339 30.6177 136.515 29.9849C136.691 29.3521 136.845 28.7017 136.977 28.0337C137.108 27.3657 137.218 26.7021 137.306 26.043C137.403 25.375 137.473 24.729 137.517 24.105C137.561 23.481 137.583 22.8965 137.583 22.3516C137.583 22.0439 137.574 21.71 137.557 21.3496C137.539 20.9893 137.5 20.6289 137.438 20.2686C137.385 19.9082 137.302 19.5654 137.188 19.2402C137.073 18.9062 136.915 18.6118 136.713 18.3569C136.52 18.0933 136.273 17.8867 135.975 17.7373C135.685 17.5791 135.333 17.5 134.92 17.5C134.516 17.5 134.168 17.6099 133.878 17.8296C133.597 18.0405 133.355 18.3174 133.153 18.6602C132.951 19.0029 132.789 19.3896 132.666 19.8203C132.551 20.251 132.463 20.686 132.402 21.1255C132.34 21.5562 132.296 21.9692 132.27 22.3647C132.252 22.7603 132.244 23.0942 132.244 23.3667V31H127.801V23.9072C127.801 23.5996 127.805 23.2305 127.814 22.7998C127.823 22.3604 127.81 21.9033 127.774 21.4287C127.748 20.9541 127.691 20.4839 127.603 20.0181C127.524 19.5435 127.392 19.1216 127.208 18.7524C127.032 18.3833 126.79 18.0845 126.482 17.856C126.175 17.6187 125.788 17.5 125.322 17.5C124.927 17.5 124.593 17.6099 124.32 17.8296C124.057 18.0493 123.833 18.335 123.648 18.6865C123.472 19.0293 123.332 19.4204 123.226 19.8599C123.129 20.2905 123.055 20.7256 123.002 21.165C122.958 21.5957 122.932 22.0088 122.923 22.4043C122.914 22.791 122.91 23.1118 122.91 23.3667V31H118.44V15.7729H120.154L121.789 19.3193C122.158 18.0889 122.738 17.1309 123.529 16.4453C124.329 15.751 125.388 15.4038 126.707 15.4038C127.893 15.4038 128.877 15.6499 129.66 16.1421C130.442 16.6343 131.057 17.4341 131.505 18.5415C131.76 18.0581 132.042 17.623 132.349 17.2363C132.666 16.8496 133.013 16.52 133.391 16.2476C133.777 15.9751 134.204 15.7686 134.669 15.6279C135.135 15.4785 135.649 15.4038 136.212 15.4038C137.249 15.4038 138.132 15.5752 138.862 15.918C139.6 16.252 140.202 16.7178 140.668 17.3154C141.134 17.9131 141.472 18.625 141.683 19.4512C141.894 20.2686 142 21.1562 142 22.1143ZM148.631 23.7754C149.176 23.8984 149.721 23.9951 150.266 24.0654C150.811 24.1357 151.36 24.1709 151.914 24.1709C152.494 24.1709 153.03 24.1182 153.522 24.0127C154.023 23.8984 154.454 23.7139 154.814 23.459C155.183 23.1953 155.473 22.8481 155.684 22.4175C155.895 21.9868 156 21.4507 156 20.8091C156 20.2905 155.93 19.8159 155.79 19.3853C155.649 18.9546 155.438 18.5854 155.157 18.2778C154.884 17.9702 154.546 17.7329 154.142 17.5659C153.737 17.3901 153.267 17.3022 152.731 17.3022C152.23 17.3022 151.777 17.3945 151.373 17.5791C150.978 17.7637 150.626 18.0142 150.318 18.3306C150.02 18.6382 149.76 18.9985 149.541 19.4116C149.33 19.8247 149.154 20.2554 149.013 20.7036C148.873 21.1519 148.771 21.6045 148.71 22.0615C148.648 22.5186 148.618 22.9492 148.618 23.3535C148.618 23.4238 148.618 23.4941 148.618 23.5645C148.618 23.6348 148.622 23.7051 148.631 23.7754ZM159.613 20.7695C159.613 21.3936 159.512 21.9517 159.31 22.4438C159.107 22.9272 158.831 23.3535 158.479 23.7227C158.136 24.0918 157.736 24.4038 157.279 24.6587C156.822 24.9136 156.334 25.1245 155.816 25.2915C155.297 25.4497 154.761 25.564 154.208 25.6343C153.663 25.7046 153.131 25.7397 152.612 25.7397C151.953 25.7397 151.303 25.6958 150.661 25.6079C150.02 25.5112 149.387 25.3618 148.763 25.1597C148.859 25.7397 149.013 26.2935 149.224 26.8208C149.435 27.3394 149.716 27.7964 150.068 28.1919C150.419 28.5786 150.85 28.8862 151.36 29.1147C151.878 29.3433 152.489 29.4575 153.192 29.4575C153.658 29.4575 154.102 29.3872 154.524 29.2466C154.946 29.106 155.333 28.9082 155.684 28.6533C156.036 28.3984 156.343 28.0952 156.607 27.7437C156.879 27.3921 157.099 27.001 157.266 26.5703L159.191 27.2822C158.901 27.9766 158.501 28.5786 157.991 29.0884C157.49 29.5894 156.919 30.0068 156.277 30.3408C155.645 30.666 154.968 30.9077 154.247 31.0659C153.535 31.2241 152.828 31.3032 152.125 31.3032C150.964 31.3032 149.892 31.1099 148.908 30.7231C147.923 30.3276 147.075 29.7783 146.363 29.0752C145.651 28.3721 145.093 27.5327 144.689 26.5571C144.285 25.5815 144.083 24.5137 144.083 23.3535C144.083 22.1934 144.285 21.1255 144.689 20.1499C145.093 19.1743 145.651 18.335 146.363 17.6318C147.075 16.9287 147.923 16.3838 148.908 15.9971C149.892 15.6016 150.964 15.4038 152.125 15.4038C152.687 15.4038 153.263 15.4434 153.852 15.5225C154.44 15.6016 155.012 15.729 155.565 15.9048C156.119 16.0718 156.642 16.2915 157.134 16.564C157.626 16.8364 158.053 17.1748 158.413 17.5791C158.782 17.9746 159.072 18.436 159.283 18.9634C159.503 19.4907 159.613 20.0928 159.613 20.7695Z" fill="#E2AA2E"/>
</svg>
